<svg width="32" height="32" viewBox="0 0 32 32" fill="none" xmlns="http://www.w3.org/2000/svg">
<rect width="32" height="32" rx="16" fill="#FCFCFD"/>
<g clip-path="url(#clip0_1_1403)">
<path d="M16 12.48C16.6962 12.48 17.3767 12.6864 17.9556 13.0732C18.5345 13.46 18.9856 14.0098 19.2521 14.653C19.5185 15.2962 19.5882 16.0039 19.4524 16.6867C19.3165 17.3695 18.9813 17.9967 18.489 18.489C17.9967 18.9813 17.3695 19.3165 16.6867 19.4524C16.0039 19.5882 15.2962 19.5185 14.653 19.2521C14.0098 18.9856 13.46 18.5345 13.0732 17.9556C12.6864 17.3767 12.48 16.6962 12.48 16C12.4826 15.0672 12.8543 14.1735 13.5139 13.5139C14.1735 12.8543 15.0673 12.4826 16 12.48ZM16 11C15.0111 11 14.0444 11.2932 13.2222 11.8427C12.3999 12.3921 11.759 13.173 11.3806 14.0866C11.0022 15.0002 10.9031 16.0055 11.0961 16.9755C11.289 17.9454 11.7652 18.8363 12.4645 19.5355C13.1637 20.2348 14.0546 20.711 15.0246 20.9039C15.9945 21.0969 16.9998 20.9978 17.9134 20.6194C18.827 20.241 19.6079 19.6001 20.1574 18.7779C20.7068 17.9556 21 16.9889 21 16C21 14.6739 20.4732 13.4021 19.5355 12.4645C18.5979 11.5268 17.3261 11 16 11Z" fill="#1C1917"/>
<path d="M16 26C15.8019 25.9975 15.6126 25.9176 15.4725 25.7775C15.3324 25.6374 15.2526 25.4482 15.25 25.25V22.67C15.25 22.4711 15.329 22.2804 15.4697 22.1397C15.6103 21.9991 15.8011 21.92 16 21.92C16.1989 21.92 16.3897 21.9991 16.5303 22.1397C16.671 22.2804 16.75 22.4711 16.75 22.67V25.25C16.7474 25.4482 16.6676 25.6374 16.5275 25.7775C16.3874 25.9176 16.1981 25.9975 16 26Z" fill="#1C1917"/>
<path d="M26 16C25.9974 16.1981 25.9175 16.3874 25.7774 16.5275C25.6374 16.6676 25.4481 16.7474 25.25 16.75H22.67C22.4711 16.75 22.2803 16.671 22.1397 16.5303C21.999 16.3897 21.92 16.1989 21.92 16C21.92 15.8011 21.999 15.6103 22.1397 15.4697C22.2803 15.329 22.4711 15.25 22.67 15.25H25.25C25.4481 15.2526 25.6374 15.3324 25.7774 15.4725C25.9175 15.6126 25.9974 15.8019 26 16Z" fill="#1C1917"/>
<path d="M10.08 16C10.0774 16.1981 9.99756 16.3874 9.85747 16.5275C9.71737 16.6676 9.52811 16.7474 9.33 16.75H6.75C6.55109 16.75 6.36032 16.671 6.21967 16.5303C6.07902 16.3897 6 16.1989 6 16C6 15.8011 6.07902 15.6103 6.21967 15.4697C6.36032 15.329 6.55109 15.25 6.75 15.25H9.33C9.52811 15.2526 9.71737 15.3324 9.85747 15.4725C9.99756 15.6126 10.0774 15.8019 10.08 16Z" fill="#1C1917"/>
<path d="M16 10.08C15.8019 10.0774 15.6126 9.99756 15.4725 9.85747C15.3324 9.71737 15.2526 9.52811 15.25 9.33V6.75C15.25 6.55109 15.329 6.36032 15.4697 6.21967C15.6103 6.07902 15.8011 6 16 6C16.1989 6 16.3897 6.07902 16.5303 6.21967C16.671 6.36032 16.75 6.55109 16.75 6.75V9.33C16.7474 9.52811 16.6676 9.71737 16.5275 9.85747C16.3874 9.99756 16.1981 10.0774 16 10.08Z" fill="#1C1917"/>
<path d="M8.92002 23.07C8.77957 22.9294 8.70068 22.7388 8.70068 22.54C8.70068 22.3413 8.77957 22.1506 8.92002 22.01L10.74 20.19C10.809 20.1192 10.8914 20.063 10.9824 20.0246C11.0734 19.9862 11.1712 19.9664 11.27 19.9664C11.3688 19.9664 11.4666 19.9862 11.5576 20.0246C11.6487 20.063 11.7311 20.1192 11.8 20.19C11.9405 20.3306 12.0194 20.5212 12.0194 20.72C12.0194 20.9188 11.9405 21.1094 11.8 21.25L10 23.07C9.93006 23.1426 9.84618 23.2003 9.7534 23.2398C9.66062 23.2792 9.56084 23.2995 9.46002 23.2995C9.35921 23.2995 9.25943 23.2792 9.16665 23.2398C9.07387 23.2003 8.98999 23.1426 8.92002 23.07Z" fill="#1C1917"/>
<path d="M23.06 23.0701C22.9194 23.2105 22.7287 23.2894 22.53 23.2894C22.3312 23.2894 22.1406 23.2105 22 23.0701L20.18 21.2501C20.0475 21.1079 19.9754 20.9198 19.9788 20.7255C19.9822 20.5312 20.061 20.3459 20.1984 20.2084C20.3358 20.071 20.5212 19.9923 20.7155 19.9889C20.9098 19.9855 21.0978 20.0576 21.24 20.1901L23.06 22.0001C23.131 22.0699 23.1875 22.1531 23.226 22.245C23.2645 22.3368 23.2844 22.4355 23.2844 22.5351C23.2844 22.6347 23.2645 22.7333 23.226 22.8251C23.1875 22.917 23.131 23.0003 23.06 23.0701Z" fill="#1C1917"/>
<path d="M11.8 11.81C11.6594 11.9505 11.4688 12.0293 11.27 12.0293C11.0713 12.0293 10.8806 11.9505 10.74 11.81L8.92002 10C8.77957 9.85938 8.70068 9.66876 8.70068 9.47001C8.70068 9.27126 8.77957 9.08064 8.92002 8.94001C8.98855 8.86549 9.07164 8.80583 9.16415 8.76471C9.25666 8.7236 9.35662 8.7019 9.45786 8.70096C9.55909 8.70002 9.65944 8.71987 9.75269 8.75926C9.84595 8.79866 9.93013 8.85678 10 8.93001L11.8 10.75C11.9405 10.8906 12.0194 11.0813 12.0194 11.28C12.0194 11.4788 11.9405 11.6694 11.8 11.81Z" fill="#1C1917"/>
<path d="M20.18 11.81C20.1092 11.741 20.053 11.6586 20.0146 11.5676C19.9762 11.4766 19.9564 11.3788 19.9564 11.28C19.9564 11.1812 19.9762 11.0834 20.0146 10.9924C20.053 10.9014 20.1092 10.8189 20.18 10.75L22 8.92999C22.0689 8.85923 22.1514 8.803 22.2424 8.7646C22.3334 8.7262 22.4312 8.70642 22.53 8.70642C22.6288 8.70642 22.7266 8.7262 22.8176 8.7646C22.9086 8.803 22.991 8.85923 23.06 8.92999C23.2004 9.07062 23.2793 9.26124 23.2793 9.45999C23.2793 9.65874 23.2004 9.84937 23.06 9.98999L21.24 11.81C21.0994 11.9504 20.9087 12.0293 20.71 12.0293C20.5112 12.0293 20.3206 11.9504 20.18 11.81Z" fill="#1C1917"/>
</g>
<defs>
<clipPath id="clip0_1_1403">
<rect width="24" height="24" fill="white" transform="translate(4 4)"/>
</clipPath>
</defs>
</svg>
