<svg width="32" height="32" viewBox="0 0 32 32" fill="none" xmlns="http://www.w3.org/2000/svg">
<rect width="32" height="32" rx="16" fill="#98A2B3" fill-opacity="0.2"/>
<g clip-path="url(#clip0_1_1565)">
<path d="M16.6446 27.7806C15.9692 27.7803 15.295 27.7253 14.6286 27.616C11.3688 27.0811 8.45462 25.2742 6.52607 22.5922C4.59752 19.9103 3.8123 16.5725 4.34287 13.312C4.63976 11.4559 5.3553 9.69166 6.43526 8.15311C7.51521 6.61456 8.93124 5.34205 10.576 4.43201C10.8535 4.27697 11.1697 4.20488 11.487 4.22433C11.8042 4.24378 12.1092 4.35395 12.3657 4.54173C12.6279 4.7211 12.8323 4.97279 12.954 5.26618C13.0757 5.55957 13.1096 5.88202 13.0514 6.1943L12.16 6.12573L13.0034 6.27658C12.5276 8.80069 12.9723 11.4117 14.2568 13.6361C15.5413 15.8604 17.5805 17.5506 20.0046 18.4C21.8713 19.0479 23.8796 19.1735 25.8126 18.7634C26.1184 18.7034 26.435 18.73 26.7265 18.8403C27.0181 18.9505 27.273 19.14 27.4627 19.3874C27.6523 19.6347 27.7691 19.9302 27.7998 20.2403C27.8305 20.5505 27.774 20.8631 27.6366 21.1429C26.579 23.1424 24.9973 24.8165 23.0609 25.9858C21.1246 27.1551 18.9066 27.7755 16.6446 27.7806ZM11.3166 5.98173C10.005 6.72541 8.86463 7.7368 7.96958 8.95013C7.07453 10.1635 6.44485 11.5516 6.12147 13.0242C5.79809 14.4969 5.78826 16.0211 6.09261 17.4978C6.39696 18.9745 7.00869 20.3707 7.88801 21.5954C8.94785 23.0769 10.3671 24.2645 12.0124 25.0463C13.6576 25.8282 15.4747 26.1787 17.2927 26.0649C19.1107 25.951 20.8698 25.3766 22.4046 24.3956C23.9395 23.4146 25.1995 22.0593 26.0663 20.4572C23.8607 20.9005 21.5769 20.7491 19.4492 20.0183C16.6417 19.0339 14.2788 17.078 12.7874 14.5038C11.2959 11.9296 10.7743 8.90692 11.3166 5.98173Z" fill="#EAECF0"/>
</g>
<defs>
<clipPath id="clip0_1_1565">
<rect width="24" height="24" fill="white" transform="translate(4 4)"/>
</clipPath>
</defs>
</svg>
