<svg width="24" height="25" viewBox="0 0 24 25" fill="none" xmlns="http://www.w3.org/2000/svg">
<path opacity="0.4" d="M21.49 8.30863V8.31V16.69C21.49 18.4106 20.9791 19.7238 20.0964 20.6064C19.2138 21.4891 17.9006 22 16.18 22H7.81C6.08945 22 4.77634 21.4891 3.89377 20.6054C3.01114 19.7217 2.5 18.4059 2.5 16.68V8.31C2.5 6.58944 3.01093 5.27618 3.89355 4.39355C4.77618 3.51093 6.08944 3 7.81 3H16.19C17.9107 3 19.2237 3.51097 20.105 4.39333C20.9861 5.27559 21.4947 6.58838 21.49 8.30863Z" fill="#98A2B3" stroke="#98A2B3"/>
<path d="M13.06 12.5L15.36 10.2C15.65 9.90998 15.65 9.42999 15.36 9.13999C15.07 8.84999 14.59 8.84999 14.3 9.13999L12 11.44L9.69998 9.13999C9.40998 8.84999 8.92999 8.84999 8.63999 9.13999C8.34999 9.42999 8.34999 9.90998 8.63999 10.2L10.94 12.5L8.63999 14.8C8.34999 15.09 8.34999 15.57 8.63999 15.86C8.78999 16.01 8.97999 16.08 9.16999 16.08C9.35999 16.08 9.54998 16.01 9.69998 15.86L12 13.56L14.3 15.86C14.45 16.01 14.64 16.08 14.83 16.08C15.02 16.08 15.21 16.01 15.36 15.86C15.65 15.57 15.65 15.09 15.36 14.8L13.06 12.5Z" fill="#98A2B3"/>
</svg>
