<svg width="16" height="16" viewBox="0 0 16 16" fill="none" xmlns="http://www.w3.org/2000/svg">
<g clip-path="url(#clip0_1_1417)">
<path d="M15.7983 14.854L11.2077 10.2601C12.1127 9.17474 12.657 7.78772 12.657 6.27281C12.657 2.81672 9.82068 0.0065918 6.3318 0.0065918C2.84291 0.0065918 0 2.81999 0 6.27609C0 9.73218 2.83636 12.5423 6.32524 12.5423C7.80736 12.5423 9.17143 12.0341 10.2535 11.1848L14.8605 15.7918C15.1294 16.0607 15.5295 16.0607 15.7983 15.7918C16.0672 15.5229 16.0672 15.1229 15.7983 14.854ZM1.3444 6.27609C1.3444 3.56105 3.58069 1.35427 6.32524 1.35427C9.06978 1.35427 11.3061 3.56105 11.3061 6.27609C11.3061 8.99112 9.06978 11.1979 6.32524 11.1979C3.58069 11.1979 1.3444 8.98784 1.3444 6.27609Z" fill="#667085"/>
</g>
<defs>
<clipPath id="clip0_1_1417">
<rect width="16" height="16" fill="white"/>
</clipPath>
</defs>
</svg>
